# xmcd
#
# Track frame offsets:
#	150
#	19689
#	35431
#	59214
#	75803
#	93519
#	110449
#	124764
#	143472
#	165357
#	177376
#	197119
#	216380
#
# Disc length: 3075 seconds
#
# Revision: 2
# Processed by: cddbd v1.5.1PL0 Copyright (c) Steve Scherf et al.
# Submitted via: dBpowerAMP V4.0
#
DISCID=ac0c010d
DTITLE=Three Studs And a Stone - Ain´t no Blues on my Radio
DYEAR=2000
DGENRE=Blues
TTITLE0=Dying in my Sleep
TTITLE1=Good Whisky And a Cadilac Car
TTITLE2=Ain´t no Blues on my Radio
TTITLE3=Living Off The Ground
TTITLE4=I Won´t Trade my Woman
TTITLE5=Miss Ellioth
TTITLE6=Bad Stuff
TTITLE7=Real Kind of Special
TTITLE8=Monday Morning
TTITLE9=Guess She´s Too Smart
TTITLE10=Like a Rich Man
TTITLE11=Rosendale Sunset
TTITLE12=Way Back Louisiana
EXTD=
EXTT0=
EXTT1=
EXTT2=
EXTT3=
EXTT4=
EXTT5=
EXTT6=
EXTT7=
EXTT8=
EXTT9=
EXTT10=
EXTT11=
EXTT12=
PLAYORDER=
